<?xml version="1.0" encoding="utf-8"?>
<!-- Generator: Adobe Illustrator 19.1.0, SVG Export Plug-In . SVG Version: 6.00 Build 0)  -->
<svg version="1.1" id="Layer_1" xmlns="http://www.w3.org/2000/svg" xmlns:xlink="http://www.w3.org/1999/xlink" x="0px" y="0px"
	 viewBox="0 0 866.561 349.453" style="enable-background:new 0 0 866.561 349.453;" xml:space="preserve">
<style type="text/css">
	.st0{fill:#EC297B;}
	.st1{fill:#231F20;}
</style>
<g>
	<path class="st0" d="M767.41,213.024c0,3.332,3.124,6.871,6.243,6.871c3.124,0,5.624-2.916,5.624-6.871v-63.905
		c0-3.955-2.5-6.871-5.624-6.871c-3.119,0-6.243,2.916-6.243,6.871V213.024z M746.386,124.138h21.024v7.495
		c3.54-3.332,6.663-5.832,10.822-7.703c1.876-1.04,3.955-1.455,5.831-1.455c5.827,0,9.782,3.327,12.49,7.49
		c2.5,4.371,3.747,9.995,3.747,14.782v72.648c0,4.792-1.247,10.411-3.747,14.574c-2.708,4.371-6.663,7.703-12.49,7.703
		c-3.955,0-8.119-2.292-11.242-4.579c-1.871-1.46-3.54-2.916-5.411-4.579v46.628h-21.024V124.138z M697.673,152.45
		c0.208-4.371-0.624-7.495-2.703-9.995c-1.044-1.04-2.708-1.663-4.584-1.663c-3.956,0-5.619,2.708-6.451,5.827
		c-0.624,1.668-0.832,3.54-0.624,5.832v57.247c-0.208,4.371,0.832,7.49,2.703,9.782c1.044,1.04,2.5,1.663,4.371,1.663
		c3.955,0,5.831-2.495,6.663-5.619c0.624-1.663,0.832-3.54,0.624-5.827V152.45z M717.45,210.321
		c-0.624,11.03-3.955,18.733-11.242,24.772c-3.748,3.119-8.951,4.579-15.822,4.579c-13.53,0-20.188-7.495-23.52-14.99
		c-1.876-4.371-3.124-9.366-3.332-14.985V152.45c0.624-11.035,3.955-19.153,11.242-25.396c3.54-3.124,8.742-4.579,15.609-4.579
		c13.534,0,20.401,7.49,23.732,14.777c1.876,4.371,3.124,9.158,3.332,14.574V210.321z M616.283,152.45
		c0.208-4.371-0.629-7.495-2.708-9.995c-1.04-1.04-2.708-1.663-4.579-1.663c-3.956,0-5.619,2.708-6.455,5.827
		c-0.624,1.668-0.832,3.54-0.624,5.832v57.247c-0.208,4.371,0.832,7.49,2.708,9.782c1.04,1.04,2.495,1.663,4.371,1.663
		c3.955,0,5.827-2.495,6.658-5.619c0.629-1.663,0.837-3.54,0.629-5.827V152.45z M636.055,210.321
		c-0.624,11.03-3.955,18.733-11.237,24.772c-3.748,3.119-8.951,4.579-15.822,4.579c-13.53,0-20.193-7.495-23.525-14.99
		c-1.871-4.371-3.124-9.366-3.332-14.985V152.45c0.629-11.035,3.955-19.153,11.242-25.396c3.54-3.124,8.742-4.579,15.614-4.579
		c13.53,0,20.401,7.49,23.732,14.777c1.871,4.371,3.119,9.158,3.327,14.574V210.321z M523.234,211.776
		c0,4.163,0.208,9.158,5.827,9.158c4.787,0,6.039-2.287,6.039-9.158v-15.822h21.025v11.035c0,12.698-2.292,20.817-6.871,25.812
		c-4.579,4.995-11.242,6.871-20.193,6.871c-7.495,0-14.361-2.084-19.148-7.287c-4.792-5.203-7.703-13.738-7.703-26.435v-49.752
		c0-12.698,2.911-21.232,7.703-26.44c4.787-5.203,11.653-7.282,19.148-7.282c8.95,0,15.614,1.871,20.193,6.866
		c4.579,4.995,6.871,13.114,6.871,25.812v8.955H535.1v-13.742c0-6.866-1.252-9.158-6.039-9.158c-5.619,0-5.827,4.995-5.827,9.158
		V211.776z M457.037,153.282c0-2.708,0-6.035-0.832-8.743c-1.04-2.5-2.708-4.579-6.039-4.579c-2.703,0-4.371,2.079-5.203,4.579
		c-1.04,2.495-1.248,6.035-1.248,8.743c0,3.54,1.871,7.287,4.579,10.619c2.495,3.327,5.827,6.658,9.158,9.782
		c4.371,4.371,9.574,9.366,13.114,14.985c3.54,5.832,6.248,12.282,6.248,19.777c0,7.287-1.668,14.99-5.832,20.817
		c-4.371,6.039-11.03,10.411-21.025,10.411c-12.698,0-20.193-5.832-24.356-12.906c-4.163-7.079-4.995-15.822-4.995-21.861h19.569
		c0,3.124,0.208,7.495,1.664,10.827c1.46,3.54,3.747,6.455,8.119,6.455c6.039,0,7.287-7.079,7.287-13.742
		c0-6.866-6.663-13.738-13.114-20.193c-4.995-4.787-9.782-9.158-13.53-14.777c-3.747-5.624-6.455-11.866-6.455-20.193
		c0-6.663,1.248-14.361,5.203-20.401c3.955-5.827,10.411-10.198,20.401-10.406c12.282-0.208,19.153,4.371,22.693,10.406
		c3.54,6.039,4.163,13.945,4.163,20.401H457.037z"/>
	<path class="st1" d="M362.321,168.479h15.198v-16.03c0-4.371-0.832-7.495-2.916-9.995c-1.04-1.04-2.703-1.663-4.579-1.663
		c-3.955,0-5.619,2.708-6.658,5.827c-0.629,1.668-0.837,3.54-1.044,5.832V168.479z M397.088,197.207v13.114
		c-0.629,11.03-3.955,18.733-11.45,24.772c-3.747,3.119-8.95,4.579-15.822,4.579c-13.53,0-20.401-7.495-23.732-14.99
		c-1.871-4.371-3.119-9.366-3.327-14.985V152.45c0.624-11.035,4.163-19.153,11.653-25.396c3.54-3.124,8.743-4.579,15.614-4.579
		c13.53,0,20.401,7.49,23.733,14.777c1.871,4.371,3.124,9.158,3.332,14.574v33.099h-34.767v24.772
		c0.208,4.371,1.46,7.49,3.332,9.782c1.04,1.04,2.5,1.663,4.371,1.663c3.955,0,5.832-2.495,6.663-5.619
		c0.624-1.663,0.832-3.54,0.832-5.827v-12.49H397.088z M304.247,96.035v28.104h14.361v18.945h-14.361v56.618
		c0,3.54,0,8.119,0.832,11.866s2.495,6.871,5.827,6.871c1.668,0,3.747-0.208,5.203-0.416c0.837-0.213,1.668-0.213,2.5-0.421v20.609
		c-1.04,0.208-2.079,0.629-3.124,0.837c-2.079,0.416-4.787,0.624-8.119,0.624c-12.282,0-18.109-6.247-21.025-14.158
		c-2.911-7.911-3.119-17.485-3.119-24.143v-58.287h-10.619v-18.945h10.619V96.035H304.247z M230.342,183.049
		c-10.198,4.371-14.569,14.574-14.569,25.396c0,1.46,0.208,3.955,1.04,6.247c0.832,2.495,2.292,4.371,4.787,4.371
		c4.787,0,8.743-2.916,8.743-6.871V183.049z M230.342,151.198c0-1.871,0-4.787-0.624-6.866c-0.832-2.084-2.495-3.54-5.203-3.54
		c-3.54,0-4.995,2.708-5.619,6.035c-0.208,1.668-0.416,3.54-0.416,5.416v5.411h-21.025v-4.787c0-8.327,3.119-15.822,8.114-21.44
		c5-5.624,12.074-8.95,20.193-8.95c6.871,0,13.114,2.703,17.906,7.282c4.787,4.579,7.698,11.035,7.698,18.529v69.945
		c0,10.198,0.629,14.777,1.46,19.772h-20.609c-1.876-2.287-1.876-7.703-1.876-9.158h-1.455c-1.04,1.876-2.916,4.579-5.827,6.871
		c-2.916,2.287-6.871,3.955-11.034,3.955c-2.708,0-7.079-1.044-10.406-5.208c-3.54-3.951-6.455-11.03-6.455-22.896
		c0-12.698,3.747-21.856,8.742-28.104c4.995-6.243,11.242-10.198,16.445-12.906c5.203-2.708,9.158-4.579,9.99-6.871V151.198z
		 M158.733,96.035v28.104h14.366v18.945h-14.366v56.618c0,3.54,0,8.119,0.837,11.866c0.832,3.747,2.495,6.871,5.827,6.871
		c1.663,0,3.747-0.208,5.203-0.416c0.832-0.213,1.668-0.213,2.5-0.421v20.609c-1.04,0.208-2.084,0.629-3.124,0.837
		c-2.079,0.416-4.787,0.624-8.119,0.624c-12.282,0-18.109-6.247-21.025-14.158c-2.916-7.911-3.124-17.485-3.124-24.143v-58.287
		h-10.614v-18.945h10.614V96.035H158.733z M88.373,153.282c0-2.708,0-6.035-0.832-8.743c-1.04-2.5-2.708-4.579-6.039-4.579
		c-2.703,0-4.371,2.079-5.203,4.579c-1.04,2.495-1.248,6.035-1.248,8.743c0,3.54,1.871,7.287,4.579,10.619
		c2.495,3.327,5.827,6.658,9.158,9.782c4.371,4.371,9.574,9.366,13.114,14.985c3.54,5.832,6.248,12.282,6.248,19.777
		c0,7.287-1.668,14.99-5.832,20.817c-4.371,6.039-11.03,10.411-21.025,10.411c-12.698,0-20.193-5.832-24.356-12.906
		c-4.163-7.079-4.995-15.822-4.995-21.861h19.569c0,3.124,0.208,7.495,1.664,10.827c1.46,3.54,3.747,6.455,8.119,6.455
		c6.039,0,7.287-7.079,7.287-13.742c0-6.866-6.663-13.738-13.114-20.193c-4.995-4.787-9.782-9.158-13.53-14.777
		c-3.747-5.624-6.455-11.866-6.455-20.193c0-6.663,1.248-14.361,5.203-20.401c3.955-5.827,10.411-10.198,20.401-10.406
		c12.282-0.208,19.153,4.371,22.693,10.406c3.54,6.039,4.163,13.945,4.163,20.401H88.373z"/>
</g>
</svg>
