<?xml version="1.0" encoding="UTF-8" standalone="no"?>
<!-- Generator: Adobe Illustrator 20.1.0, SVG Export Plug-In . SVG Version: 6.00 Build 0)  -->

<svg
   xmlns:dc="http://purl.org/dc/elements/1.1/"
   xmlns:cc="http://creativecommons.org/ns#"
   xmlns:rdf="http://www.w3.org/1999/02/22-rdf-syntax-ns#"
   xmlns:svg="http://www.w3.org/2000/svg"
   xmlns="http://www.w3.org/2000/svg"
   xmlns:sodipodi="http://sodipodi.sourceforge.net/DTD/sodipodi-0.dtd"
   xmlns:inkscape="http://www.inkscape.org/namespaces/inkscape"
   version="1.1"
   id="Layer_1"
   x="0px"
   y="0px"
   viewBox="0 0 324 36"
   xml:space="preserve"
   inkscape:version="0.91 r13725"
   sodipodi:docname="logo-long.svg"
   width="324"
   height="36"><metadata
     id="metadata3414"><rdf:RDF><cc:Work
         rdf:about=""><dc:format>image/svg+xml</dc:format><dc:type
           rdf:resource="http://purl.org/dc/dcmitype/StillImage" /><dc:title></dc:title></cc:Work></rdf:RDF></metadata><defs
     id="defs3412" /><sodipodi:namedview
     pagecolor="#ffffff"
     bordercolor="#666666"
     borderopacity="1"
     objecttolerance="10"
     gridtolerance="10"
     guidetolerance="10"
     inkscape:pageopacity="0"
     inkscape:pageshadow="2"
     inkscape:window-width="1394"
     inkscape:window-height="792"
     id="namedview3410"
     showgrid="false"
     fit-margin-top="0"
     fit-margin-left="0"
     fit-margin-right="0"
     fit-margin-bottom="0"
     inkscape:zoom="3.0138889"
     inkscape:cx="162"
     inkscape:cy="18"
     inkscape:window-x="15"
     inkscape:window-y="14"
     inkscape:window-maximized="0"
     inkscape:current-layer="Layer_1"><inkscape:grid
       type="xygrid"
       id="grid4216"
       originx="-54"
       originy="-36" /></sodipodi:namedview><g
     id="g3396"
     style="fill:#333333;fill-opacity:1"
     transform="translate(-54,-36)"><path
       d="m 58.5,72 4.5,0 0,-18 -4.5,0 0,18 z m 9,0 4.5,0 0,-18 -4.5,0 0,18 z m 9,0 4.5,0 0,-18 -4.5,0 0,18 z m 9,0 4.5,0 0,-18 -4.5,0 0,18 z M 74.3,36 54,47.6 l 0,1.9 40.5,0 0,-1.9 L 74.3,36 Z"
       id="path3398"
       style="fill:#333333;fill-opacity:1"
       inkscape:connector-curvature="0" /><g
       id="g3400"
       style="fill:#333333;fill-opacity:1"><path
         d="m 370.6,71.7 1.6,0 0,-6.4 5.8,-6.5 -2,0 -4.6,5.1 -4.6,-5.1 -2,0 5.8,6.4 0,6.5 z m -20.4,-7.1 0,-4.3 5.8,0 c 1.6,0 2.4,0.8 2.4,2.2 0,1.4 -0.8,2.1 -2.5,2.1 l -5.7,0 z m -1.6,7.1 1.6,0 0,-5.6 5,0 3.2,5.6 1.8,0 L 357,66 c 1.9,-0.3 3.1,-1.8 3.1,-3.6 0,-2.2 -1.5,-3.6 -4,-3.6 l -7.4,0 0,12.9 z m -16.4,-5 2.8,-5.7 2.8,5.7 -5.6,0 z m -4.2,5 1.7,0 1.7,-3.5 7.1,0 1.7,3.5 1.7,0 -6.4,-12.9 -1.3,0 -6.2,12.9 z m -16,-7.1 0,-4.3 5.8,0 c 1.6,0 2.4,0.8 2.4,2.2 0,1.4 -0.8,2.1 -2.5,2.1 l -5.7,0 z m -1.6,7.1 1.6,0 0,-5.6 5,0 3.2,5.6 1.8,0 -3.2,-5.7 c 1.9,-0.3 3.1,-1.8 3.1,-3.6 0,-2.2 -1.5,-3.6 -4,-3.6 l -7.4,0 0,12.9 z m -18.3,-7.8 0,-3.6 6.2,0 c 1.4,0 2.1,0.6 2.1,1.8 0,1.1 -0.7,1.8 -2.1,1.8 l -6.2,0 z m 0,6.3 0,-4.8 6.7,0 c 1.5,0 2.4,1 2.4,2.4 0,1.5 -0.9,2.4 -2.4,2.4 l -6.7,0 z m -1.6,1.5 8,0 c 2.7,0 4.3,-1.5 4.3,-3.9 0,-1.5 -0.7,-2.7 -2.1,-3.4 0.8,-0.5 1.2,-1.3 1.2,-2.4 0,-2.1 -1.3,-3.2 -3.8,-3.2 l -7.6,0 0,12.9 z m -9.9,0 1.6,0 0,-13 -1.6,0 0,13 z m -16.6,0 10,0 0,-1.5 -8.4,0 0,-11.4 -1.6,0 0,12.9 z"
         id="path3402"
         style="fill:#333333;fill-opacity:1"
         inkscape:connector-curvature="0" /></g><path
       d="m 195.6,59.1 0,12.9 10,0 0,-1.5 -8.4,0 0,-11.4 -1.6,0 z m 22.6,2.2 2.8,5.7 -5.7,0 2.9,-5.7 z m -0.7,-2.2 -6.3,12.9 1.7,0 1.7,-3.5 7.1,0 1.7,3.5 1.7,0 -6.4,-12.9 -1.2,0 z m 27.5,0 -3.2,9.9 -3.3,-9.9 -1.4,0 -3.3,9.9 -3.2,-9.9 -1.6,0 4.2,12.9 1.2,0 3.4,-10.4 3.4,10.4 1.2,0 4.2,-12.9 -1.6,0 z"
       id="path3404"
       style="fill:#333333;fill-opacity:1"
       inkscape:connector-curvature="0" /><g
       id="g3406"
       style="fill:#333333;fill-opacity:1"><path
         d="m 164.5,71.7 1.6,0 0,-9.7 8.4,9.6 0.8,0 0,-12.8 -1.6,0 0,9.6 -8.4,-9.6 -0.8,0 0,12.9 z m -17.4,0 10.7,0 0,-1.5 -9.1,0 0,-4.7 5.2,0 0,-1.5 -5.2,0 0,-3.8 8.5,0 0,-1.5 -10.1,0 0,13 z m -16.8,-7.2 0,-4.3 5.8,0 c 1.6,0 2.4,0.8 2.4,2.2 0,1.4 -0.8,2.1 -2.5,2.1 l -5.7,0 z m -1.6,7.2 1.6,0 0,-5.7 6,0 c 2.4,0 3.8,-1.6 3.8,-3.8 0,-2.2 -1.5,-3.5 -4,-3.5 l -7.4,0 0,13 z m -14,-1.2 c -2.9,0 -5,-2.2 -5,-5.2 0,-3 2.2,-5.3 5,-5.3 2.9,0 5,2.2 5,5.3 0,3 -2.1,5.2 -5,5.2 m 0,1.5 c 3.8,0 6.7,-2.8 6.7,-6.7 0,-3.9 -2.8,-6.8 -6.7,-6.8 -3.8,0 -6.7,2.8 -6.7,6.8 0,4 2.8,6.7 6.7,6.7"
         id="path3408"
         style="fill:#333333;fill-opacity:1"
         inkscape:connector-curvature="0" /></g></g></svg>